<svg width="32" height="32" viewBox="0 0 32 32" fill="none" xmlns="http://www.w3.org/2000/svg">
<path d="M19.1995 19.1999V21.4398C19.1995 22.3359 19.1995 22.7839 19.0251 23.1261C18.8717 23.4272 18.627 23.6719 18.3259 23.8253C17.9836 23.9997 17.5355 23.9997 16.6394 23.9997H10.5591C9.66302 23.9997 9.21495 23.9997 8.87268 23.8253C8.57161 23.6719 8.32683 23.4272 8.17342 23.1261C7.99902 22.7839 7.99902 22.3359 7.99902 21.4398V15.3601C7.99902 14.4641 7.99902 14.0161 8.17342 13.6738C8.32683 13.3728 8.57161 13.128 8.87268 12.9746C9.21495 12.8003 9.66302 12.8003 10.5591 12.8003H12.7992M15.3594 19.1999H21.4396C22.3358 19.1999 22.7838 19.1999 23.1261 19.0256C23.4272 18.8722 23.672 18.6274 23.8254 18.3264C23.9998 17.9841 23.9998 17.5361 23.9998 16.6401V10.5604C23.9998 9.66432 23.9998 9.2163 23.8254 8.87406C23.672 8.57302 23.4272 8.32826 23.1261 8.17487C22.7838 8.00049 22.3358 8.00049 21.4396 8.00049H15.3594C14.4632 8.00049 14.0152 8.00049 13.6729 8.17487C13.3718 8.32826 13.127 8.57302 12.9736 8.87406C12.7992 9.2163 12.7992 9.66432 12.7992 10.5604V16.6401C12.7992 17.5361 12.7992 17.9841 12.9736 18.3264C13.127 18.6274 13.3718 18.8722 13.6729 19.0256C14.0152 19.1999 14.4632 19.1999 15.3594 19.1999Z" stroke="#2ED3B7" stroke-width="1.6" stroke-linecap="round" stroke-linejoin="round"/>
</svg>
